<svg xmlns="http://www.w3.org/2000/svg" xmlns:xlink="http://www.w3.org/1999/xlink" xmlns:xodm="http://www.corel.com/coreldraw/odm/2003" xml:space="preserve" version="1.1" style="shape-rendering:geometricPrecision;text-rendering:geometricPrecision;image-rendering:optimizeQuality;" x="0px" y="0px" fill-rule="evenodd" clip-rule="evenodd" viewBox="-0.01 603.37 1388.9 182.1"><defs><style type="text/css">       .fil0 {fill:rgb(56, 56, 56)}     </style></defs><g><path class="fil0" d="M1333.59 694.43c8.72,-0.44 16.57,-3.39 23.07,-7.21 9.65,-5.66 26.22,-2.24 32.23,7.2 -6.86,9.44 -22.37,13.02 -32.23,7.25 -6.5,-3.81 -14.35,-6.8 -23.07,-7.24zm-796.74 7.77c-4.41,0 -8,-3.58 -8,-7.99 0,-4.41 3.58,-8 8,-8 4.41,0 7.99,3.58 7.99,8 0,4.41 -3.58,7.99 -7.99,7.99zm30.37 1.89c-5.46,0 -9.88,-4.43 -9.88,-9.88 0,-5.46 4.43,-9.89 9.88,-9.89 5.46,0 9.88,4.43 9.88,9.89 0,5.46 -4.43,9.88 -9.88,9.88zm37.54 2.69c-6.94,0 -12.58,-5.63 -12.58,-12.57 0,-6.94 5.63,-12.58 12.58,-12.58 6.94,0 12.57,5.63 12.57,12.58 0,6.94 -5.63,12.57 -12.57,12.57zm42.87 2.35c-8.24,0 -14.93,-6.69 -14.93,-14.93 0,-8.24 6.69,-14.93 14.93,-14.93 8.24,0 14.93,6.69 14.93,14.93 0,8.24 -6.69,14.93 -14.93,14.93zm205.17 -6.94c4.41,0 7.99,-3.58 7.99,-7.99 0,-4.41 -3.58,-8 -7.99,-8 -4.41,0 -7.99,3.58 -7.99,8 0,4.41 3.58,7.99 7.99,7.99zm-30.37 1.89c5.46,0 9.88,-4.43 9.88,-9.88 0,-5.46 -4.43,-9.89 -9.88,-9.89 -5.46,0 -9.88,4.43 -9.88,9.89 0,5.46 4.42,9.88 9.88,9.88zm-37.54 2.69c6.94,0 12.57,-5.63 12.57,-12.57 0,-6.94 -5.63,-12.58 -12.57,-12.58 -6.94,0 -12.57,5.63 -12.57,12.58 0,6.94 5.63,12.57 12.57,12.57zm-42.87 2.35c8.24,0 14.93,-6.69 14.93,-14.93 0,-8.24 -6.69,-14.93 -14.93,-14.93 -8.24,0 -14.93,6.69 -14.93,14.93 0,8.24 6.69,14.93 14.93,14.93zm-47.19 2.98c9.89,0 17.92,-8.02 17.92,-17.91 0,-9.9 -8.02,-17.92 -17.92,-17.92 -9.89,0 -17.92,8.02 -17.92,17.92 0,9.89 8.02,17.91 17.92,17.91zm-445.06 -58.21c-2.36,0 -4.28,1.92 -4.28,4.28 0,2.35 1.92,4.28 4.28,4.28l890.34 0c2.36,0 4.28,-1.92 4.28,-4.28 0,-2.36 -1.92,-4.28 -4.28,-4.28l-890.34 0zm0 72.19c-2.36,0 -4.28,1.92 -4.28,4.28 0,2.36 1.92,4.28 4.28,4.28l890.34 0c2.36,0 4.28,-1.92 4.28,-4.28 0,-2.35 -1.92,-4.28 -4.28,-4.28l-890.34 0zm-71.99 -42.31c9.3,-0.94 21.03,-5.83 28.6,-16.43 4.47,-6.26 -3.89,-12.07 -7.65,-4.28 -3.54,7.33 -9.2,13.37 -20.94,20.7zm0 22.1c9.3,0.94 21.03,5.83 28.6,16.43 4.47,6.26 -3.89,12.07 -7.65,4.28 -3.54,-7.33 -9.2,-13.37 -20.94,-20.7zm-30.33 63.31c-36.6,7.76 -34.92,-41.3 -8.94,-41.03 -6.39,2.83 -14.26,16.31 -8.19,25.08 7.68,-18.13 39.69,-4.24 23.4,20.75 -5.38,8.44 -14.56,11.37 -22.56,11.48 -21.29,0.3 -35.9,-14.73 -35.89,-32.16 -13.12,11.78 -25.74,-14.87 -3.29,-35.18 14.84,-13.43 31.8,-16.89 46.75,-16.43 22.34,0.69 45.55,10.6 53.95,31.15 -26.49,-33.19 -93.46,-30.22 -90,20.27 1.04,15.22 11.24,26.69 28.61,26.07 7.76,-0.28 14.41,-4.01 16.16,-10.01zm-76.9 -134.35c-23.89,-4.59 -27.19,45.21 29.72,55.92 -24.22,-0.92 -39.73,-12.76 -50.87,-23.91 -11.72,-11.72 -31.32,4.07 -14.27,16.33 13.53,9.72 31.81,10.46 47.8,11.19 0.72,0.03 0.78,0.09 0.01,0.1 -15.98,0.73 -34.27,1.47 -47.8,11.19 -17.05,12.25 2.54,28.05 14.27,16.33 11.15,-11.14 26.66,-22.98 50.87,-23.91 -56.91,10.7 -53.61,60.51 -29.72,55.92 -5.24,-43.02 34.53,-56.1 69.27,-56.1l371.73 0c1.97,0 3.56,-1.59 3.56,-3.56 0,-1.97 -1.59,-3.56 -3.56,-3.56l-371.62 0c-34.8,0 -74.65,-12.66 -69.38,-55.95zm76.9 -15.17c-36.6,-7.76 -34.92,41.3 -8.94,41.03 -6.39,-2.84 -14.26,-16.31 -8.19,-25.08 7.68,18.13 39.69,4.24 23.4,-20.75 -5.38,-8.44 -14.56,-11.37 -22.56,-11.48 -21.29,-0.3 -35.9,14.73 -35.89,32.16 -13.12,-11.78 -25.74,14.87 -3.29,35.18 14.84,13.43 31.8,16.89 46.75,16.43 22.34,-0.69 45.55,-10.6 53.95,-31.15 -26.49,33.19 -93.46,30.22 -90,-20.27 1.04,-15.22 11.24,-26.69 28.61,-26.07 7.76,0.28 14.41,4.01 16.16,10.01zm-92.16 74.74c-8.72,-0.44 -16.57,-3.39 -23.07,-7.21 -9.65,-5.66 -26.22,-2.24 -32.23,7.2 6.86,9.44 22.37,13.02 32.23,7.25 6.5,-3.81 14.35,-6.8 23.07,-7.24zm1155.81 -10.64c-9.3,-0.94 -21.03,-5.83 -28.6,-16.43 -4.47,-6.26 3.89,-12.07 7.65,-4.28 3.54,7.33 9.2,13.37 20.94,20.7zm0 22.1c-9.3,0.94 -21.03,5.83 -28.6,16.43 -4.47,6.26 3.89,12.07 7.65,4.28 3.54,-7.33 9.2,-13.37 20.94,-20.7zm30.33 63.31c36.6,7.76 34.92,-41.3 8.94,-41.03 6.39,2.83 14.26,16.31 8.19,25.08 -7.68,-18.13 -39.69,-4.24 -23.4,20.75 5.38,8.44 14.56,11.37 22.56,11.48 21.29,0.3 35.9,-14.73 35.89,-32.16 13.12,11.78 25.74,-14.87 3.29,-35.18 -14.84,-13.43 -31.8,-16.89 -46.75,-16.43 -22.34,0.69 -45.55,10.6 -53.95,31.15 26.49,-33.19 93.46,-30.22 90,20.27 -1.04,15.22 -11.24,26.69 -28.61,26.07 -7.76,-0.28 -14.41,-4.01 -16.16,-10.01zm44.42 -84.04c19.51,-7.3 35.85,-22.57 32.48,-50.31 23.89,-4.59 27.19,45.21 -29.72,55.92 24.22,-0.92 39.73,-12.76 50.87,-23.91 11.72,-11.72 31.32,4.07 14.27,16.33 -13.53,9.72 -31.81,10.46 -47.8,11.19 -0.72,0.03 -0.78,0.09 -0.01,0.1 15.98,0.73 34.27,1.47 47.8,11.19 17.05,12.25 -2.54,28.05 -14.27,16.33 -11.15,-11.14 -26.66,-22.98 -50.87,-23.91 56.91,10.7 53.61,60.51 29.72,55.92 3.38,-27.76 -12.65,-43.15 -32.07,-50.54 -19.48,-7.41 -38.2,-5.56 -58.47,-5.56l-346.31 0c-1.97,0 -3.56,-1.59 -3.56,-3.56 0,-1.97 1.59,-3.56 3.56,-3.56l346.42 0c19.75,0 39.07,1.41 57.95,-5.65zm-44.42 -65.48c36.6,-7.76 34.92,41.3 8.94,41.03 6.39,-2.84 14.26,-16.31 8.19,-25.08 -7.68,18.13 -39.69,4.24 -23.4,-20.75 5.38,-8.44 14.56,-11.37 22.56,-11.48 21.29,-0.3 35.9,14.73 35.89,32.16 13.12,-11.78 25.74,14.87 3.29,35.18 -14.84,13.43 -31.8,16.89 -46.75,16.43 -22.34,-0.69 -45.55,-10.6 -53.95,-31.15 26.49,33.19 93.46,30.22 90,-20.27 -1.04,-15.22 -11.24,-26.69 -28.61,-26.07 -7.76,0.28 -14.41,4.01 -16.16,10.01z"></path></g></svg>